<mxfile host="app.diagrams.net" agent="Mozilla/5.0 (Windows NT 10.0; Win64; x64) AppleWebKit/537.36 (KHTML, like Gecko) Chrome/138.0.0.0 Safari/537.36" version="27.2.0" pages="3">
  <diagram name="maintenance-model" id="gcXD1M0WAKyqTYtmxhtr">
    <mxGraphModel dx="1147" dy="762" grid="1" gridSize="10" guides="1" tooltips="1" connect="1" arrows="1" fold="1" page="1" pageScale="1" pageWidth="850" pageHeight="1100" math="0" shadow="0">
      <root>
        <mxCell id="0" />
        <mxCell id="1" parent="0" />
        <mxCell id="Gse5z4biYCBLNY0AAzqU-25" value="" style="edgeStyle=orthogonalEdgeStyle;rounded=0;orthogonalLoop=1;jettySize=auto;html=1;strokeWidth=2;" edge="1" parent="1" source="Gse5z4biYCBLNY0AAzqU-1" target="Gse5z4biYCBLNY0AAzqU-23">
          <mxGeometry relative="1" as="geometry" />
        </mxCell>
        <mxCell id="Gse5z4biYCBLNY0AAzqU-1" value="1. Issue Raised" style="rounded=0;whiteSpace=wrap;html=1;fillColor=#dae8fc;strokeColor=#6c8ebf;fontSize=15;" vertex="1" parent="1">
          <mxGeometry x="80" y="80" width="160" height="50" as="geometry" />
        </mxCell>
        <mxCell id="Gse5z4biYCBLNY0AAzqU-15" value="" style="edgeStyle=orthogonalEdgeStyle;rounded=0;orthogonalLoop=1;jettySize=auto;html=1;strokeWidth=2;" edge="1" parent="1" source="Gse5z4biYCBLNY0AAzqU-2" target="Gse5z4biYCBLNY0AAzqU-6">
          <mxGeometry relative="1" as="geometry" />
        </mxCell>
        <mxCell id="Gse5z4biYCBLNY0AAzqU-2" value="Prioritization" style="rounded=0;whiteSpace=wrap;html=1;fillColor=#dae8fc;strokeColor=#6c8ebf;fontSize=15;" vertex="1" parent="1">
          <mxGeometry x="195" y="410" width="110" height="50" as="geometry" />
        </mxCell>
        <mxCell id="Gse5z4biYCBLNY0AAzqU-13" style="edgeStyle=orthogonalEdgeStyle;rounded=0;orthogonalLoop=1;jettySize=auto;html=1;exitX=0.5;exitY=1;exitDx=0;exitDy=0;entryX=0.5;entryY=0;entryDx=0;entryDy=0;strokeWidth=2;curved=1;" edge="1" parent="1" source="Gse5z4biYCBLNY0AAzqU-4" target="Gse5z4biYCBLNY0AAzqU-7">
          <mxGeometry relative="1" as="geometry" />
        </mxCell>
        <mxCell id="Gse5z4biYCBLNY0AAzqU-44" value="External&lt;div&gt;Demand&lt;/div&gt;" style="edgeLabel;html=1;align=center;verticalAlign=middle;resizable=0;points=[];fontSize=14;" vertex="1" connectable="0" parent="Gse5z4biYCBLNY0AAzqU-13">
          <mxGeometry x="0.2128" y="16" relative="1" as="geometry">
            <mxPoint x="9" y="-41" as="offset" />
          </mxGeometry>
        </mxCell>
        <mxCell id="Gse5z4biYCBLNY0AAzqU-14" style="edgeStyle=orthogonalEdgeStyle;rounded=0;orthogonalLoop=1;jettySize=auto;html=1;exitX=0.5;exitY=1;exitDx=0;exitDy=0;curved=1;strokeWidth=2;" edge="1" parent="1" source="Gse5z4biYCBLNY0AAzqU-4" target="Gse5z4biYCBLNY0AAzqU-2">
          <mxGeometry relative="1" as="geometry" />
        </mxCell>
        <mxCell id="Gse5z4biYCBLNY0AAzqU-4" value="2. Validation" style="rounded=0;whiteSpace=wrap;html=1;fillColor=#dae8fc;strokeColor=#6c8ebf;fontSize=15;" vertex="1" parent="1">
          <mxGeometry x="80" y="280" width="160" height="50" as="geometry" />
        </mxCell>
        <mxCell id="Gse5z4biYCBLNY0AAzqU-17" style="edgeStyle=orthogonalEdgeStyle;rounded=0;orthogonalLoop=1;jettySize=auto;html=1;exitX=0.5;exitY=1;exitDx=0;exitDy=0;entryX=0.5;entryY=0;entryDx=0;entryDy=0;strokeWidth=2;curved=1;" edge="1" parent="1" source="Gse5z4biYCBLNY0AAzqU-6" target="Gse5z4biYCBLNY0AAzqU-9">
          <mxGeometry relative="1" as="geometry" />
        </mxCell>
        <mxCell id="Gse5z4biYCBLNY0AAzqU-6" value="&lt;font&gt;Internal Contributor&lt;/font&gt;" style="rounded=1;whiteSpace=wrap;html=1;fontSize=15;fillColor=#e1d5e7;strokeColor=#9673a6;" vertex="1" parent="1">
          <mxGeometry x="190" y="500" width="120" height="50" as="geometry" />
        </mxCell>
        <mxCell id="Gse5z4biYCBLNY0AAzqU-16" style="edgeStyle=orthogonalEdgeStyle;rounded=0;orthogonalLoop=1;jettySize=auto;html=1;exitX=0.5;exitY=1;exitDx=0;exitDy=0;entryX=0.5;entryY=0;entryDx=0;entryDy=0;strokeWidth=2;curved=1;" edge="1" parent="1" source="Gse5z4biYCBLNY0AAzqU-7" target="Gse5z4biYCBLNY0AAzqU-9">
          <mxGeometry relative="1" as="geometry" />
        </mxCell>
        <mxCell id="Gse5z4biYCBLNY0AAzqU-7" value="&lt;font&gt;External&lt;/font&gt;&lt;div&gt;&lt;font&gt;Contributor&lt;/font&gt;&lt;/div&gt;" style="rounded=1;whiteSpace=wrap;html=1;fontSize=15;fillColor=#e1d5e7;strokeColor=#9673a6;" vertex="1" parent="1">
          <mxGeometry y="500" width="120" height="50" as="geometry" />
        </mxCell>
        <mxCell id="Gse5z4biYCBLNY0AAzqU-29" style="edgeStyle=orthogonalEdgeStyle;rounded=0;orthogonalLoop=1;jettySize=auto;html=1;exitX=1;exitY=0.5;exitDx=0;exitDy=0;entryX=0;entryY=0.5;entryDx=0;entryDy=0;curved=1;dashed=1;" edge="1" parent="1" source="Gse5z4biYCBLNY0AAzqU-9" target="Gse5z4biYCBLNY0AAzqU-10">
          <mxGeometry relative="1" as="geometry">
            <Array as="points">
              <mxPoint x="370" y="625" />
              <mxPoint x="370" y="105" />
            </Array>
          </mxGeometry>
        </mxCell>
        <mxCell id="Gse5z4biYCBLNY0AAzqU-9" value="3. Work the Issue" style="rounded=0;whiteSpace=wrap;html=1;fillColor=#dae8fc;strokeColor=#6c8ebf;fontSize=15;" vertex="1" parent="1">
          <mxGeometry x="80" y="600" width="160" height="50" as="geometry" />
        </mxCell>
        <mxCell id="Gse5z4biYCBLNY0AAzqU-32" value="" style="edgeStyle=orthogonalEdgeStyle;rounded=0;orthogonalLoop=1;jettySize=auto;html=1;strokeWidth=2;" edge="1" parent="1" source="Gse5z4biYCBLNY0AAzqU-10" target="Gse5z4biYCBLNY0AAzqU-24">
          <mxGeometry relative="1" as="geometry" />
        </mxCell>
        <mxCell id="Gse5z4biYCBLNY0AAzqU-10" value="3. Work the Issue" style="rounded=0;whiteSpace=wrap;html=1;fillColor=#dae8fc;strokeColor=#6c8ebf;fontSize=15;" vertex="1" parent="1">
          <mxGeometry x="450" y="80" width="160" height="50" as="geometry" />
        </mxCell>
        <mxCell id="Gse5z4biYCBLNY0AAzqU-34" style="edgeStyle=orthogonalEdgeStyle;rounded=0;orthogonalLoop=1;jettySize=auto;html=1;exitX=1;exitY=0.5;exitDx=0;exitDy=0;entryX=1;entryY=0.5;entryDx=0;entryDy=0;curved=1;dashed=1;strokeWidth=2;" edge="1" parent="1" source="Gse5z4biYCBLNY0AAzqU-19" target="Gse5z4biYCBLNY0AAzqU-10">
          <mxGeometry relative="1" as="geometry">
            <Array as="points">
              <mxPoint x="670" y="310" />
              <mxPoint x="670" y="105" />
            </Array>
          </mxGeometry>
        </mxCell>
        <mxCell id="Gse5z4biYCBLNY0AAzqU-42" value="Failed" style="edgeLabel;html=1;align=center;verticalAlign=middle;resizable=0;points=[];fontSize=14;" vertex="1" connectable="0" parent="Gse5z4biYCBLNY0AAzqU-34">
          <mxGeometry x="-0.7172" y="17" relative="1" as="geometry">
            <mxPoint x="3" y="-23" as="offset" />
          </mxGeometry>
        </mxCell>
        <mxCell id="Gse5z4biYCBLNY0AAzqU-35" value="" style="edgeStyle=orthogonalEdgeStyle;rounded=0;orthogonalLoop=1;jettySize=auto;html=1;strokeWidth=2;" edge="1" parent="1" source="Gse5z4biYCBLNY0AAzqU-19" target="Gse5z4biYCBLNY0AAzqU-20">
          <mxGeometry relative="1" as="geometry" />
        </mxCell>
        <mxCell id="Gse5z4biYCBLNY0AAzqU-43" value="Passed" style="edgeLabel;html=1;align=center;verticalAlign=middle;resizable=0;points=[];fontSize=14;" vertex="1" connectable="0" parent="Gse5z4biYCBLNY0AAzqU-35">
          <mxGeometry x="0.1818" y="1" relative="1" as="geometry">
            <mxPoint x="-3" y="-10" as="offset" />
          </mxGeometry>
        </mxCell>
        <mxCell id="Gse5z4biYCBLNY0AAzqU-19" value="Automated&lt;div&gt;Checks&lt;/div&gt;" style="rhombus;whiteSpace=wrap;html=1;fillColor=#fff2cc;strokeColor=#d6b656;fontSize=15;" vertex="1" parent="1">
          <mxGeometry x="460" y="260" width="140" height="100" as="geometry" />
        </mxCell>
        <mxCell id="Gse5z4biYCBLNY0AAzqU-36" value="" style="edgeStyle=orthogonalEdgeStyle;rounded=0;orthogonalLoop=1;jettySize=auto;html=1;strokeWidth=2;" edge="1" parent="1" source="Gse5z4biYCBLNY0AAzqU-20" target="Gse5z4biYCBLNY0AAzqU-21">
          <mxGeometry relative="1" as="geometry" />
        </mxCell>
        <mxCell id="Gse5z4biYCBLNY0AAzqU-20" value="Prioritization" style="rounded=0;whiteSpace=wrap;html=1;fillColor=#dae8fc;strokeColor=#6c8ebf;fontSize=15;" vertex="1" parent="1">
          <mxGeometry x="475" y="410" width="110" height="50" as="geometry" />
        </mxCell>
        <mxCell id="Gse5z4biYCBLNY0AAzqU-37" value="" style="edgeStyle=orthogonalEdgeStyle;rounded=0;orthogonalLoop=1;jettySize=auto;html=1;strokeWidth=2;" edge="1" parent="1" source="Gse5z4biYCBLNY0AAzqU-21" target="Gse5z4biYCBLNY0AAzqU-27">
          <mxGeometry relative="1" as="geometry" />
        </mxCell>
        <mxCell id="Gse5z4biYCBLNY0AAzqU-21" value="4. Code Review" style="rounded=0;whiteSpace=wrap;html=1;fillColor=#dae8fc;strokeColor=#6c8ebf;fontSize=15;" vertex="1" parent="1">
          <mxGeometry x="450" y="500" width="160" height="50" as="geometry" />
        </mxCell>
        <mxCell id="Gse5z4biYCBLNY0AAzqU-26" value="" style="edgeStyle=orthogonalEdgeStyle;rounded=0;orthogonalLoop=1;jettySize=auto;html=1;strokeWidth=2;" edge="1" parent="1" source="Gse5z4biYCBLNY0AAzqU-23" target="Gse5z4biYCBLNY0AAzqU-4">
          <mxGeometry relative="1" as="geometry" />
        </mxCell>
        <mxCell id="Gse5z4biYCBLNY0AAzqU-23" value="Discussion" style="rounded=0;whiteSpace=wrap;html=1;fillColor=#dae8fc;strokeColor=#6c8ebf;fontSize=15;" vertex="1" parent="1">
          <mxGeometry x="105" y="180" width="110" height="50" as="geometry" />
        </mxCell>
        <mxCell id="Gse5z4biYCBLNY0AAzqU-33" value="" style="edgeStyle=orthogonalEdgeStyle;rounded=0;orthogonalLoop=1;jettySize=auto;html=1;strokeWidth=2;" edge="1" parent="1" source="Gse5z4biYCBLNY0AAzqU-24" target="Gse5z4biYCBLNY0AAzqU-19">
          <mxGeometry relative="1" as="geometry" />
        </mxCell>
        <mxCell id="Gse5z4biYCBLNY0AAzqU-24" value="Pull / Merge&lt;div&gt;Request&lt;/div&gt;" style="rounded=0;whiteSpace=wrap;html=1;fillColor=#dae8fc;strokeColor=#6c8ebf;fontSize=15;" vertex="1" parent="1">
          <mxGeometry x="475" y="170" width="110" height="50" as="geometry" />
        </mxCell>
        <mxCell id="Gse5z4biYCBLNY0AAzqU-38" style="edgeStyle=orthogonalEdgeStyle;rounded=0;orthogonalLoop=1;jettySize=auto;html=1;exitX=1;exitY=0.5;exitDx=0;exitDy=0;entryX=1;entryY=0.5;entryDx=0;entryDy=0;curved=1;dashed=1;strokeWidth=2;" edge="1" parent="1" source="Gse5z4biYCBLNY0AAzqU-27" target="Gse5z4biYCBLNY0AAzqU-10">
          <mxGeometry relative="1" as="geometry">
            <Array as="points">
              <mxPoint x="710" y="630" />
              <mxPoint x="710" y="105" />
            </Array>
          </mxGeometry>
        </mxCell>
        <mxCell id="Gse5z4biYCBLNY0AAzqU-41" value="&lt;font style=&quot;font-size: 14px;&quot;&gt;Failed&lt;/font&gt;" style="edgeLabel;html=1;align=center;verticalAlign=middle;resizable=0;points=[];" vertex="1" connectable="0" parent="Gse5z4biYCBLNY0AAzqU-38">
          <mxGeometry x="-0.0721" y="-1" relative="1" as="geometry">
            <mxPoint x="-41" y="181" as="offset" />
          </mxGeometry>
        </mxCell>
        <mxCell id="Gse5z4biYCBLNY0AAzqU-39" value="" style="edgeStyle=orthogonalEdgeStyle;rounded=0;orthogonalLoop=1;jettySize=auto;html=1;strokeWidth=2;" edge="1" parent="1" source="Gse5z4biYCBLNY0AAzqU-27" target="Gse5z4biYCBLNY0AAzqU-28">
          <mxGeometry relative="1" as="geometry" />
        </mxCell>
        <mxCell id="Gse5z4biYCBLNY0AAzqU-40" value="Passed" style="edgeLabel;html=1;align=center;verticalAlign=middle;resizable=0;points=[];fontSize=14;" vertex="1" connectable="0" parent="Gse5z4biYCBLNY0AAzqU-39">
          <mxGeometry x="-0.08" y="-2" relative="1" as="geometry">
            <mxPoint as="offset" />
          </mxGeometry>
        </mxCell>
        <mxCell id="Gse5z4biYCBLNY0AAzqU-27" value="Automated&lt;div&gt;Build&lt;/div&gt;" style="rhombus;whiteSpace=wrap;html=1;fillColor=#fff2cc;strokeColor=#d6b656;fontSize=15;" vertex="1" parent="1">
          <mxGeometry x="460" y="580" width="140" height="100" as="geometry" />
        </mxCell>
        <mxCell id="Gse5z4biYCBLNY0AAzqU-28" value="5. Release Process" style="rounded=0;whiteSpace=wrap;html=1;fillColor=#dae8fc;strokeColor=#6c8ebf;fontSize=15;" vertex="1" parent="1">
          <mxGeometry x="450" y="730" width="160" height="50" as="geometry" />
        </mxCell>
        <mxCell id="Gse5z4biYCBLNY0AAzqU-31" style="edgeStyle=orthogonalEdgeStyle;rounded=0;orthogonalLoop=1;jettySize=auto;html=1;exitX=1;exitY=1;exitDx=0;exitDy=0;entryX=1;entryY=0;entryDx=0;entryDy=0;curved=1;dashed=1;dashPattern=8 8;" edge="1" parent="1" source="Gse5z4biYCBLNY0AAzqU-23" target="Gse5z4biYCBLNY0AAzqU-23">
          <mxGeometry relative="1" as="geometry">
            <Array as="points">
              <mxPoint x="215" y="250" />
              <mxPoint x="280" y="250" />
              <mxPoint x="280" y="160" />
              <mxPoint x="215" y="160" />
            </Array>
          </mxGeometry>
        </mxCell>
      </root>
    </mxGraphModel>
  </diagram>
  <diagram id="MsFohCdJXD0WPnFg0s2L" name="upstream-fix">
    <mxGraphModel dx="1147" dy="762" grid="1" gridSize="10" guides="1" tooltips="1" connect="1" arrows="1" fold="1" page="1" pageScale="1" pageWidth="850" pageHeight="1100" math="0" shadow="0">
      <root>
        <mxCell id="0" />
        <mxCell id="1" parent="0" />
        <mxCell id="BvZ0hb6wotOzzue8PrmM-8" style="edgeStyle=orthogonalEdgeStyle;rounded=0;orthogonalLoop=1;jettySize=auto;html=1;exitX=1;exitY=0.5;exitDx=0;exitDy=0;entryX=0;entryY=0.5;entryDx=0;entryDy=0;curved=1;" edge="1" parent="1" source="BvZ0hb6wotOzzue8PrmM-1" target="BvZ0hb6wotOzzue8PrmM-2">
          <mxGeometry relative="1" as="geometry" />
        </mxCell>
        <mxCell id="BvZ0hb6wotOzzue8PrmM-9" style="edgeStyle=orthogonalEdgeStyle;rounded=0;orthogonalLoop=1;jettySize=auto;html=1;exitX=1;exitY=0.5;exitDx=0;exitDy=0;entryX=0;entryY=0.5;entryDx=0;entryDy=0;curved=1;" edge="1" parent="1" source="BvZ0hb6wotOzzue8PrmM-1" target="BvZ0hb6wotOzzue8PrmM-5">
          <mxGeometry relative="1" as="geometry" />
        </mxCell>
        <mxCell id="BvZ0hb6wotOzzue8PrmM-1" value="Root Module" style="rounded=1;whiteSpace=wrap;html=1;fontSize=15;fillColor=#e1d5e7;strokeColor=#9673a6;" vertex="1" parent="1">
          <mxGeometry x="40" y="280" width="120" height="50" as="geometry" />
        </mxCell>
        <mxCell id="BvZ0hb6wotOzzue8PrmM-10" style="edgeStyle=orthogonalEdgeStyle;rounded=0;orthogonalLoop=1;jettySize=auto;html=1;exitX=1;exitY=0.5;exitDx=0;exitDy=0;entryX=0;entryY=0.5;entryDx=0;entryDy=0;curved=1;" edge="1" parent="1" source="BvZ0hb6wotOzzue8PrmM-2" target="BvZ0hb6wotOzzue8PrmM-6">
          <mxGeometry relative="1" as="geometry" />
        </mxCell>
        <mxCell id="BvZ0hb6wotOzzue8PrmM-11" style="edgeStyle=orthogonalEdgeStyle;rounded=0;orthogonalLoop=1;jettySize=auto;html=1;exitX=1;exitY=0.5;exitDx=0;exitDy=0;entryX=0;entryY=0.5;entryDx=0;entryDy=0;curved=1;" edge="1" parent="1" source="BvZ0hb6wotOzzue8PrmM-2" target="BvZ0hb6wotOzzue8PrmM-3">
          <mxGeometry relative="1" as="geometry" />
        </mxCell>
        <mxCell id="BvZ0hb6wotOzzue8PrmM-2" value="Module One" style="rounded=1;whiteSpace=wrap;html=1;fontSize=15;fillColor=#e1d5e7;strokeColor=#9673a6;" vertex="1" parent="1">
          <mxGeometry x="220" y="230" width="120" height="50" as="geometry" />
        </mxCell>
        <mxCell id="BvZ0hb6wotOzzue8PrmM-13" value="" style="edgeStyle=orthogonalEdgeStyle;rounded=0;orthogonalLoop=1;jettySize=auto;html=1;" edge="1" parent="1" source="BvZ0hb6wotOzzue8PrmM-3" target="BvZ0hb6wotOzzue8PrmM-4">
          <mxGeometry relative="1" as="geometry" />
        </mxCell>
        <mxCell id="BvZ0hb6wotOzzue8PrmM-3" value="Module Four" style="rounded=1;whiteSpace=wrap;html=1;fontSize=15;fillColor=#e1d5e7;strokeColor=#9673a6;" vertex="1" parent="1">
          <mxGeometry x="390" y="280" width="120" height="50" as="geometry" />
        </mxCell>
        <mxCell id="BvZ0hb6wotOzzue8PrmM-4" value="Our Code" style="rounded=1;whiteSpace=wrap;html=1;fontSize=15;fillColor=#d5e8d4;strokeColor=#82b366;" vertex="1" parent="1">
          <mxGeometry x="570" y="280" width="120" height="50" as="geometry" />
        </mxCell>
        <mxCell id="BvZ0hb6wotOzzue8PrmM-12" value="" style="edgeStyle=orthogonalEdgeStyle;rounded=0;orthogonalLoop=1;jettySize=auto;html=1;" edge="1" parent="1" source="BvZ0hb6wotOzzue8PrmM-5" target="BvZ0hb6wotOzzue8PrmM-7">
          <mxGeometry relative="1" as="geometry" />
        </mxCell>
        <mxCell id="BvZ0hb6wotOzzue8PrmM-5" value="Module Two" style="rounded=1;whiteSpace=wrap;html=1;fontSize=15;fillColor=#D4D4D4;strokeColor=#9673a6;" vertex="1" parent="1">
          <mxGeometry x="220" y="350" width="120" height="50" as="geometry" />
        </mxCell>
        <mxCell id="BvZ0hb6wotOzzue8PrmM-6" value="Module Three" style="rounded=1;whiteSpace=wrap;html=1;fontSize=15;fillColor=#D4D4D4;strokeColor=#9673a6;" vertex="1" parent="1">
          <mxGeometry x="390" y="180" width="120" height="50" as="geometry" />
        </mxCell>
        <mxCell id="BvZ0hb6wotOzzue8PrmM-7" value="Module Five" style="rounded=1;whiteSpace=wrap;html=1;fontSize=15;fillColor=#D4D4D4;strokeColor=#666666;fontColor=#333333;" vertex="1" parent="1">
          <mxGeometry x="390" y="350" width="120" height="50" as="geometry" />
        </mxCell>
      </root>
    </mxGraphModel>
  </diagram>
  <diagram id="zzHXsem8Y4P_Oc7UeQ3o" name="notional-application">
    <mxGraphModel dx="1147" dy="762" grid="1" gridSize="10" guides="1" tooltips="1" connect="1" arrows="1" fold="1" page="1" pageScale="1" pageWidth="850" pageHeight="1100" math="0" shadow="0">
      <root>
        <mxCell id="0" />
        <mxCell id="1" parent="0" />
        <mxCell id="xtXhpWvE7XgDwjfdG8LP-37" value="&lt;span&gt;(Other)&lt;/span&gt;" style="rounded=0;whiteSpace=wrap;html=1;align=right;verticalAlign=top;fontSize=15;fontStyle=0" vertex="1" parent="1">
          <mxGeometry x="620" y="170" width="160" height="160" as="geometry" />
        </mxCell>
        <mxCell id="xtXhpWvE7XgDwjfdG8LP-36" value="&lt;b&gt;GitLab&lt;/b&gt;" style="rounded=0;whiteSpace=wrap;html=1;align=right;verticalAlign=top;fontSize=15;" vertex="1" parent="1">
          <mxGeometry x="320" y="340" width="460" height="110" as="geometry" />
        </mxCell>
        <mxCell id="xtXhpWvE7XgDwjfdG8LP-35" value="&lt;b&gt;SourceForge&lt;/b&gt;" style="rounded=0;whiteSpace=wrap;html=1;align=right;verticalAlign=top;fontSize=15;" vertex="1" parent="1">
          <mxGeometry x="320" y="170" width="290" height="160" as="geometry" />
        </mxCell>
        <mxCell id="xtXhpWvE7XgDwjfdG8LP-34" value="&lt;b&gt;GitHub&lt;/b&gt;" style="rounded=0;whiteSpace=wrap;html=1;align=right;verticalAlign=top;fontSize=15;" vertex="1" parent="1">
          <mxGeometry x="20" y="170" width="290" height="280" as="geometry" />
        </mxCell>
        <mxCell id="xtXhpWvE7XgDwjfdG8LP-18" style="edgeStyle=orthogonalEdgeStyle;rounded=0;orthogonalLoop=1;jettySize=auto;html=1;exitX=0.5;exitY=0;exitDx=0;exitDy=0;entryX=0.5;entryY=1;entryDx=0;entryDy=0;curved=1;" edge="1" parent="1" source="xtXhpWvE7XgDwjfdG8LP-1" target="xtXhpWvE7XgDwjfdG8LP-2">
          <mxGeometry relative="1" as="geometry" />
        </mxCell>
        <mxCell id="xtXhpWvE7XgDwjfdG8LP-19" style="edgeStyle=orthogonalEdgeStyle;rounded=0;orthogonalLoop=1;jettySize=auto;html=1;exitX=0.5;exitY=0;exitDx=0;exitDy=0;entryX=0.5;entryY=1;entryDx=0;entryDy=0;curved=1;" edge="1" parent="1" source="xtXhpWvE7XgDwjfdG8LP-1" target="xtXhpWvE7XgDwjfdG8LP-7">
          <mxGeometry relative="1" as="geometry" />
        </mxCell>
        <mxCell id="xtXhpWvE7XgDwjfdG8LP-20" style="edgeStyle=orthogonalEdgeStyle;rounded=0;orthogonalLoop=1;jettySize=auto;html=1;exitX=0.5;exitY=0;exitDx=0;exitDy=0;entryX=0.5;entryY=1;entryDx=0;entryDy=0;curved=1;" edge="1" parent="1" source="xtXhpWvE7XgDwjfdG8LP-1" target="xtXhpWvE7XgDwjfdG8LP-8">
          <mxGeometry relative="1" as="geometry" />
        </mxCell>
        <mxCell id="xtXhpWvE7XgDwjfdG8LP-21" style="edgeStyle=orthogonalEdgeStyle;rounded=0;orthogonalLoop=1;jettySize=auto;html=1;exitX=0.5;exitY=0;exitDx=0;exitDy=0;entryX=0.5;entryY=1;entryDx=0;entryDy=0;curved=1;" edge="1" parent="1" source="xtXhpWvE7XgDwjfdG8LP-1" target="xtXhpWvE7XgDwjfdG8LP-10">
          <mxGeometry relative="1" as="geometry" />
        </mxCell>
        <mxCell id="xtXhpWvE7XgDwjfdG8LP-22" style="edgeStyle=orthogonalEdgeStyle;rounded=0;orthogonalLoop=1;jettySize=auto;html=1;exitX=0.5;exitY=0;exitDx=0;exitDy=0;entryX=0.5;entryY=1;entryDx=0;entryDy=0;curved=1;" edge="1" parent="1" source="xtXhpWvE7XgDwjfdG8LP-1" target="xtXhpWvE7XgDwjfdG8LP-3">
          <mxGeometry relative="1" as="geometry">
            <Array as="points">
              <mxPoint x="390" y="460" />
              <mxPoint x="230" y="460" />
            </Array>
          </mxGeometry>
        </mxCell>
        <mxCell id="xtXhpWvE7XgDwjfdG8LP-23" style="edgeStyle=orthogonalEdgeStyle;rounded=0;orthogonalLoop=1;jettySize=auto;html=1;exitX=0.5;exitY=0;exitDx=0;exitDy=0;entryX=0.5;entryY=1;entryDx=0;entryDy=0;curved=1;" edge="1" parent="1" source="xtXhpWvE7XgDwjfdG8LP-1" target="xtXhpWvE7XgDwjfdG8LP-6">
          <mxGeometry relative="1" as="geometry">
            <Array as="points">
              <mxPoint x="390" y="460" />
              <mxPoint x="330" y="460" />
              <mxPoint x="330" y="300" />
              <mxPoint x="390" y="300" />
            </Array>
          </mxGeometry>
        </mxCell>
        <mxCell id="xtXhpWvE7XgDwjfdG8LP-1" value="Scheduling&lt;div&gt;Application&lt;/div&gt;" style="shape=hexagon;perimeter=hexagonPerimeter2;whiteSpace=wrap;html=1;fixedSize=1;fontSize=15;fontStyle=1;fillColor=#fff2cc;strokeColor=#d6b656;" vertex="1" parent="1">
          <mxGeometry x="260" y="500" width="260" height="60" as="geometry" />
        </mxCell>
        <mxCell id="xtXhpWvE7XgDwjfdG8LP-25" style="edgeStyle=orthogonalEdgeStyle;rounded=0;orthogonalLoop=1;jettySize=auto;html=1;exitX=0.5;exitY=0;exitDx=0;exitDy=0;entryX=0.5;entryY=1;entryDx=0;entryDy=0;curved=1;" edge="1" parent="1" source="xtXhpWvE7XgDwjfdG8LP-4" target="xtXhpWvE7XgDwjfdG8LP-5">
          <mxGeometry relative="1" as="geometry" />
        </mxCell>
        <mxCell id="xtXhpWvE7XgDwjfdG8LP-4" value="Date &amp;amp; Time Helper" style="rounded=1;whiteSpace=wrap;html=1;fontSize=14;fillColor=#D4D4D4;strokeColor=#666666;fontColor=#333333;" vertex="1" parent="1">
          <mxGeometry x="30" y="290" width="120" height="50" as="geometry" />
        </mxCell>
        <mxCell id="xtXhpWvE7XgDwjfdG8LP-5" value="Timezone&amp;nbsp;&lt;span style=&quot;background-color: transparent; color: light-dark(rgb(0, 0, 0), rgb(255, 255, 255));&quot;&gt;Helper&lt;/span&gt;" style="rounded=1;whiteSpace=wrap;html=1;fontSize=14;fillColor=#D4D4D4;strokeColor=#666666;fontColor=#333333;" vertex="1" parent="1">
          <mxGeometry x="30" y="200" width="120" height="50" as="geometry" />
        </mxCell>
        <mxCell id="xtXhpWvE7XgDwjfdG8LP-6" value="Collection Helper" style="rounded=1;whiteSpace=wrap;html=1;fontSize=14;fillColor=#dae8fc;strokeColor=#6c8ebf;" vertex="1" parent="1">
          <mxGeometry x="330" y="200" width="120" height="50" as="geometry" />
        </mxCell>
        <mxCell id="xtXhpWvE7XgDwjfdG8LP-28" style="edgeStyle=orthogonalEdgeStyle;rounded=0;orthogonalLoop=1;jettySize=auto;html=1;exitX=0.5;exitY=0;exitDx=0;exitDy=0;entryX=0.5;entryY=1;entryDx=0;entryDy=0;curved=1;" edge="1" parent="1" source="xtXhpWvE7XgDwjfdG8LP-8" target="xtXhpWvE7XgDwjfdG8LP-9">
          <mxGeometry relative="1" as="geometry" />
        </mxCell>
        <mxCell id="xtXhpWvE7XgDwjfdG8LP-8" value="Logging Helper" style="rounded=1;whiteSpace=wrap;html=1;fontSize=14;fillColor=#dae8fc;strokeColor=#6c8ebf;" vertex="1" parent="1">
          <mxGeometry x="490" y="380" width="120" height="50" as="geometry" />
        </mxCell>
        <mxCell id="xtXhpWvE7XgDwjfdG8LP-11" value="Crypto Helper" style="rounded=1;whiteSpace=wrap;html=1;fontSize=14;fillColor=#D4D4D4;strokeColor=#666666;fontColor=#333333;" vertex="1" parent="1">
          <mxGeometry x="640" y="225" width="120" height="50" as="geometry" />
        </mxCell>
        <mxCell id="xtXhpWvE7XgDwjfdG8LP-24" style="edgeStyle=orthogonalEdgeStyle;rounded=0;orthogonalLoop=1;jettySize=auto;html=1;exitX=0.5;exitY=0;exitDx=0;exitDy=0;entryX=0.5;entryY=1;entryDx=0;entryDy=0;curved=1;" edge="1" parent="1" source="xtXhpWvE7XgDwjfdG8LP-2" target="xtXhpWvE7XgDwjfdG8LP-4">
          <mxGeometry relative="1" as="geometry" />
        </mxCell>
        <mxCell id="xtXhpWvE7XgDwjfdG8LP-26" style="edgeStyle=orthogonalEdgeStyle;rounded=0;orthogonalLoop=1;jettySize=auto;html=1;exitX=0.5;exitY=0;exitDx=0;exitDy=0;entryX=0;entryY=0.5;entryDx=0;entryDy=0;curved=1;" edge="1" parent="1" source="xtXhpWvE7XgDwjfdG8LP-3" target="xtXhpWvE7XgDwjfdG8LP-6">
          <mxGeometry relative="1" as="geometry" />
        </mxCell>
        <mxCell id="xtXhpWvE7XgDwjfdG8LP-29" style="edgeStyle=orthogonalEdgeStyle;rounded=0;orthogonalLoop=1;jettySize=auto;html=1;exitX=0.5;exitY=0;exitDx=0;exitDy=0;entryX=0.5;entryY=1;entryDx=0;entryDy=0;curved=1;" edge="1" parent="1" source="xtXhpWvE7XgDwjfdG8LP-10" target="xtXhpWvE7XgDwjfdG8LP-11">
          <mxGeometry relative="1" as="geometry" />
        </mxCell>
        <mxCell id="xtXhpWvE7XgDwjfdG8LP-30" style="edgeStyle=orthogonalEdgeStyle;rounded=0;orthogonalLoop=1;jettySize=auto;html=1;exitX=0;exitY=0.5;exitDx=0;exitDy=0;entryX=1;entryY=0.5;entryDx=0;entryDy=0;curved=1;" edge="1" parent="1" source="xtXhpWvE7XgDwjfdG8LP-10" target="xtXhpWvE7XgDwjfdG8LP-8">
          <mxGeometry relative="1" as="geometry" />
        </mxCell>
        <mxCell id="xtXhpWvE7XgDwjfdG8LP-10" value="Authentication Module" style="rounded=1;whiteSpace=wrap;html=1;fontSize=14;fillColor=#dae8fc;strokeColor=#6c8ebf;shadow=0;" vertex="1" parent="1">
          <mxGeometry x="640" y="380" width="120" height="50" as="geometry" />
        </mxCell>
        <mxCell id="xtXhpWvE7XgDwjfdG8LP-7" value="Table Helper" style="rounded=1;whiteSpace=wrap;html=1;fontSize=14;fillColor=#dae8fc;strokeColor=#6c8ebf;" vertex="1" parent="1">
          <mxGeometry x="340" y="380" width="120" height="50" as="geometry" />
        </mxCell>
        <mxCell id="xtXhpWvE7XgDwjfdG8LP-9" value="File System Helper" style="rounded=1;whiteSpace=wrap;html=1;fontSize=14;fillColor=#D4D4D4;strokeColor=#666666;fontColor=#333333;" vertex="1" parent="1">
          <mxGeometry x="470" y="260" width="120" height="50" as="geometry" />
        </mxCell>
        <mxCell id="xtXhpWvE7XgDwjfdG8LP-3" value="Dialog&amp;nbsp;&lt;span style=&quot;background-color: transparent; color: light-dark(rgb(0, 0, 0), rgb(255, 255, 255));&quot;&gt;Widget&lt;/span&gt;" style="rounded=1;whiteSpace=wrap;html=1;fontSize=14;fillColor=#dae8fc;strokeColor=#6c8ebf;" vertex="1" parent="1">
          <mxGeometry x="170" y="290" width="120" height="50" as="geometry" />
        </mxCell>
        <mxCell id="xtXhpWvE7XgDwjfdG8LP-27" style="edgeStyle=orthogonalEdgeStyle;rounded=0;orthogonalLoop=1;jettySize=auto;html=1;exitX=0.5;exitY=0;exitDx=0;exitDy=0;entryX=0.25;entryY=1;entryDx=0;entryDy=0;curved=1;" edge="1" parent="1" source="xtXhpWvE7XgDwjfdG8LP-2" target="xtXhpWvE7XgDwjfdG8LP-3">
          <mxGeometry relative="1" as="geometry" />
        </mxCell>
        <mxCell id="xtXhpWvE7XgDwjfdG8LP-2" value="Clock Widget" style="rounded=1;whiteSpace=wrap;html=1;fontSize=14;fillColor=#dae8fc;strokeColor=#6c8ebf;" vertex="1" parent="1">
          <mxGeometry x="90" y="380" width="120" height="50" as="geometry" />
        </mxCell>
      </root>
    </mxGraphModel>
  </diagram>
</mxfile>
